<svg width="250" height="250" viewBox="0 0 250 250" fill="none" xmlns="http://www.w3.org/2000/svg">
    <path d="M238.5 78.6339L196.267 23.3414H125H53.7325L11.5 78.6339L125 227.232L238.5 78.6339Z" stroke="#0D0D0D"
        stroke-width="5" />
    <path
        d="M107.03 54.608L71.976 38.7809L54.2444 22.7676M107.03 54.608L97.0154 67.6597L86.2482 105.019M107.03 54.608H143.218M11.5 78.9921L46.0777 92.316L86.2482 105.019M109.187 162.107L124.801 226.363L140.786 162.107M109.187 162.107H140.786M109.187 162.107L96.0632 151.163L86.2482 105.019M140.786 162.107L153.426 151.163L164.193 105.019M143.218 54.608L179.414 38.7809L196.345 22.7676M143.218 54.608L153.426 67.6597L164.193 105.019M238.5 79.2404L203.922 92.5643L164.193 105.019"
        stroke="#0D0D0D" stroke-width="5" />
    <path d="M124.51 22.8824L73.0101 38.3324L34.5189 88.3702L124.51 227.166" stroke="#0D0D0D" stroke-width="5" />
    <path d="M125.045 22.8824L176.545 38.3324L214.986 88.8384L125.045 227.166" stroke="#0D0D0D" stroke-width="5" />
</svg>