<svg width="250" height="250" viewBox="0 0 250 250" fill="none" xmlns="http://www.w3.org/2000/svg">
    <path
        d="M48.4517 89.4348C48.4517 49.9179 82.041 17.3165 124.522 17.3165C166.014 17.3165 200.592 49.9179 200.592 89.4348C200.592 119.072 174.906 157.601 153.171 188.227C141.659 205.053 132.528 219.497 128.625 229.425C127.874 231.335 126.08 232.684 124.028 232.684V232.684C121.975 232.684 120.181 231.335 119.43 229.425C115.527 219.497 106.396 205.053 94.884 188.227C74.1376 157.601 48.4517 119.072 48.4517 89.4348ZM142.304 132.903C164.039 123.024 172.93 97.3382 163.051 75.6039C153.171 53.8696 127.485 44.9783 105.751 54.8575C95.8719 59.7971 87.9686 68.6884 84.0169 79.5556C80.0652 90.4227 81.0531 102.278 85.9927 112.157C90.9323 122.036 99.8236 129.94 110.691 133.891C115.63 135.867 120.57 136.855 125.51 136.855C130.449 136.855 136.377 135.867 142.304 132.903Z"
        fill="white" />
</svg>